<svg width="40" height="47" viewBox="0 0 40 47" fill="none" xmlns="http://www.w3.org/2000/svg">
<path d="M39.2382 24.4595C38.7386 23.1303 37.881 21.9707 36.7588 21.1068L29.6485 15.6308L31.3749 8.84739C31.9073 6.75635 30.6484 4.6187 28.5679 4.08348C26.9062 3.65595 25.1782 3.90427 23.7027 4.78344C22.2273 5.66261 21.1803 7.06655 20.755 8.7373L20.7454 8.77426L20.743 8.77185L19.7647 12.6245C18.5554 10.8733 16.5421 9.72415 14.2666 9.72415C10.9096 9.72415 8.12257 12.2234 7.647 15.4685C6.73024 15.0128 5.70158 14.7581 4.62096 14.7581C3.23263 14.7581 1.93142 15.3769 1.05062 16.4554C0.169826 17.5338 -0.181054 18.9378 0.0890996 20.3071L4.23092 41.306C4.85115 44.4779 7.63581 46.7803 10.8513 46.7803H30.4846C33.7 46.7803 36.4839 44.4779 37.1049 41.306L39.5859 28.6231C39.8584 27.2288 39.7385 25.7887 39.239 24.4595H39.2382ZM14.2658 13.7431C15.7516 13.7431 16.9609 14.959 16.9609 16.4529C16.9609 17.9469 15.7516 19.1628 14.2658 19.1628C12.7799 19.1628 11.5706 17.9469 11.5706 16.4529C11.5706 14.959 12.7799 13.7431 14.2658 13.7431ZM17.2662 22.4641L16.8466 24.118C16.4797 25.5621 15.3112 26.0394 14.3401 26.0033C13.369 25.9679 12.2372 25.4078 11.9759 23.9404L11.7521 22.6859C12.5289 23.0041 13.3778 23.1809 14.2666 23.1809C15.3448 23.1809 16.3638 22.9214 17.267 22.4641H17.2662ZM35.6638 27.8476L33.1829 40.5305C32.9295 41.8235 31.7946 42.7622 30.4838 42.7622H10.8505C9.53967 42.7622 8.40471 41.8235 8.15134 40.5273L4.00872 19.526C3.95917 19.2729 4.06867 19.0913 4.1382 19.0061C4.20774 18.9201 4.3636 18.777 4.62016 18.777C5.99491 18.777 7.16904 19.7647 7.41202 21.1252L8.04184 24.6516C8.59494 27.7488 11.0679 29.9057 14.1954 30.0198C17.323 30.1339 19.9446 28.1618 20.7183 25.1129L23.1177 15.6638L24.1943 11.4319L24.6259 9.7354C24.7866 9.10455 25.1822 8.57416 25.7393 8.24226C26.2668 7.92804 26.8806 7.82678 27.4769 7.95456L26.1989 12.9764L25.1215 17.2084L23.4782 23.6639C23.2048 24.7392 23.8498 25.8337 24.9184 26.1085C25.0847 26.1511 25.2509 26.172 25.4156 26.172C26.3068 26.172 27.1188 25.5685 27.3498 24.6604L28.5703 19.8643L29.7836 20.799L28.7805 25.0534C28.5255 26.1327 29.1897 27.216 30.264 27.4715C30.419 27.5085 30.5741 27.5262 30.7267 27.5262C31.6315 27.5262 32.4516 26.9041 32.669 25.98L33.2596 23.4759L34.3275 24.2988C35.4161 25.137 35.9276 26.4975 35.663 27.85L35.6638 27.8476Z" fill="#231F20"/>
<path d="M15.7037 7.87099C15.8164 7.89027 15.9275 7.89912 16.0378 7.89912C16.9953 7.89912 17.8417 7.20478 18.0056 6.22355L18.6554 2.34282C18.8384 1.24828 18.1047 0.212401 17.0169 0.0283702C15.9283 -0.156465 14.898 0.581267 14.7142 1.67581L14.0644 5.55654C13.8813 6.65108 14.6151 7.68696 15.7029 7.87099H15.7037Z" fill="#231F20"/>
<path d="M8.88999 7.0103C9.17692 7.84045 9.95062 8.3612 10.7779 8.3612C10.9953 8.3612 11.2167 8.32503 11.4333 8.24949C12.4755 7.88545 13.027 6.74108 12.6657 5.69234L11.3078 1.76179C10.9457 0.713862 9.80755 0.158554 8.7645 0.522598C7.72225 0.886642 7.17075 2.03101 7.53203 3.07975L8.88999 7.0103Z" fill="#231F20"/>
<path d="M1.69889 8.14904L4.84002 10.8894C5.21808 11.2197 5.68485 11.3812 6.14843 11.3812C6.70712 11.3812 7.26341 11.1466 7.65825 10.6885C8.38159 9.85032 8.29207 8.58139 7.45843 7.85411L4.3173 5.11373C3.48366 4.38644 2.22161 4.47645 1.49827 5.31464C0.77493 6.15282 0.864448 7.42175 1.69809 8.14904H1.69889Z" fill="#231F20"/>
</svg>
