<svg width="251" height="47" viewBox="0 0 251 47" fill="none" xmlns="http://www.w3.org/2000/svg">
<path d="M39.2382 24.4595C38.7386 23.1303 37.881 21.9707 36.7588 21.1068L29.6485 15.6308L31.3749 8.84739C31.9073 6.75635 30.6484 4.6187 28.5679 4.08348C26.9062 3.65595 25.1782 3.90427 23.7027 4.78344C22.2273 5.66261 21.1803 7.06655 20.755 8.7373L20.7454 8.77426L20.743 8.77185L19.7647 12.6245C18.5554 10.8733 16.5421 9.72415 14.2666 9.72415C10.9096 9.72415 8.12257 12.2234 7.647 15.4685C6.73024 15.0128 5.70158 14.7581 4.62096 14.7581C3.23263 14.7581 1.93142 15.3769 1.05062 16.4554C0.169826 17.5338 -0.181054 18.9378 0.0890996 20.3071L4.23092 41.306C4.85115 44.4779 7.63581 46.7803 10.8513 46.7803H30.4846C33.7 46.7803 36.4839 44.4779 37.1049 41.306L39.5859 28.6231C39.8584 27.2288 39.7385 25.7887 39.239 24.4595H39.2382ZM14.2658 13.7431C15.7516 13.7431 16.9609 14.959 16.9609 16.4529C16.9609 17.9469 15.7516 19.1628 14.2658 19.1628C12.7799 19.1628 11.5706 17.9469 11.5706 16.4529C11.5706 14.959 12.7799 13.7431 14.2658 13.7431ZM17.2662 22.4641L16.8466 24.118C16.4797 25.5621 15.3112 26.0394 14.3401 26.0033C13.369 25.9679 12.2372 25.4078 11.9759 23.9404L11.7521 22.6859C12.5289 23.0041 13.3778 23.1809 14.2666 23.1809C15.3448 23.1809 16.3638 22.9214 17.267 22.4641H17.2662ZM35.6638 27.8476L33.1829 40.5305C32.9295 41.8235 31.7946 42.7622 30.4838 42.7622H10.8505C9.53967 42.7622 8.40471 41.8235 8.15134 40.5273L4.00872 19.526C3.95917 19.2729 4.06867 19.0913 4.1382 19.0061C4.20774 18.9201 4.3636 18.777 4.62016 18.777C5.99491 18.777 7.16904 19.7647 7.41202 21.1252L8.04184 24.6516C8.59494 27.7488 11.0679 29.9057 14.1954 30.0198C17.323 30.1339 19.9446 28.1618 20.7183 25.1129L23.1177 15.6638L24.1943 11.4319L24.6259 9.7354C24.7866 9.10455 25.1822 8.57416 25.7393 8.24226C26.2668 7.92804 26.8806 7.82678 27.4769 7.95456L26.1989 12.9764L25.1215 17.2084L23.4782 23.6639C23.2048 24.7392 23.8498 25.8337 24.9184 26.1085C25.0847 26.1511 25.2509 26.172 25.4156 26.172C26.3068 26.172 27.1188 25.5685 27.3498 24.6604L28.5703 19.8643L29.7836 20.799L28.7805 25.0534C28.5255 26.1327 29.1897 27.216 30.264 27.4715C30.419 27.5085 30.5741 27.5262 30.7267 27.5262C31.6315 27.5262 32.4516 26.9041 32.669 25.98L33.2596 23.4759L34.3275 24.2988C35.4161 25.137 35.9276 26.4975 35.663 27.85L35.6638 27.8476Z" fill="#231F20"/>
<path d="M15.7037 7.87099C15.8164 7.89027 15.9275 7.89912 16.0378 7.89912C16.9953 7.89912 17.8417 7.20478 18.0056 6.22355L18.6554 2.34282C18.8384 1.24828 18.1047 0.212401 17.0169 0.0283702C15.9283 -0.156465 14.898 0.581267 14.7142 1.67581L14.0644 5.55654C13.8813 6.65108 14.6151 7.68696 15.7029 7.87099H15.7037Z" fill="#231F20"/>
<path d="M8.88999 7.0103C9.17692 7.84045 9.95062 8.3612 10.7779 8.3612C10.9953 8.3612 11.2167 8.32503 11.4333 8.24949C12.4755 7.88545 13.027 6.74108 12.6657 5.69234L11.3078 1.76179C10.9457 0.713862 9.80755 0.158554 8.7645 0.522598C7.72225 0.886642 7.17075 2.03101 7.53203 3.07975L8.88999 7.0103Z" fill="#231F20"/>
<path d="M1.69889 8.14904L4.84002 10.8894C5.21808 11.2197 5.68485 11.3812 6.14843 11.3812C6.70712 11.3812 7.26341 11.1466 7.65825 10.6885C8.38159 9.85032 8.29207 8.58139 7.45843 7.85411L4.3173 5.11373C3.48366 4.38644 2.22161 4.47645 1.49827 5.31464C0.77493 6.15282 0.864448 7.42175 1.69809 8.14904H1.69889Z" fill="#231F20"/>
<path d="M54.9673 31.4582L59.0713 30.5582C59.1793 31.9622 60.2233 33.2582 62.3113 33.2582C63.8953 33.2582 64.6513 32.4302 64.6513 31.4942C64.6513 30.7022 64.1113 30.0542 62.7433 29.7662L60.4033 29.2262C56.9833 28.4702 55.4353 26.4182 55.4353 23.9342C55.4353 20.7662 58.2433 18.1382 62.0593 18.1382C67.0993 18.1382 68.7913 21.3422 69.0073 23.2502L65.0113 24.1502C64.8673 23.1062 64.1113 21.7742 62.0953 21.7742C60.8353 21.7742 59.8273 22.5302 59.8273 23.5382C59.8273 24.4022 60.4753 24.9422 61.4473 25.1222L63.9673 25.6622C67.4593 26.3822 69.2233 28.5062 69.2233 31.0982C69.2233 33.9782 66.9913 36.9302 62.3473 36.9302C57.0193 36.9302 55.1833 33.4742 54.9673 31.4582ZM76.8171 13.3861V18.6782H80.3811V22.9262H76.8171V30.3422C76.8171 31.8902 77.5371 32.3942 78.9051 32.3942C79.4811 32.3942 80.1291 32.3222 80.3811 32.2502V36.2102C79.9491 36.3902 79.0851 36.6422 77.6811 36.6422C74.2251 36.6422 72.0651 34.5902 72.0651 31.1702V22.9262H68.8611V18.6782H69.7611C71.6331 18.6782 72.4971 17.4542 72.4971 15.8702V13.3861H76.8171ZM85.6044 25.5182H93.5244C93.4524 23.7542 92.3004 22.0262 89.5644 22.0262C87.0804 22.0262 85.7124 23.8982 85.6044 25.5182ZM93.9924 30.1262L97.9884 31.3142C97.0884 34.3742 94.2804 36.9302 89.9244 36.9302C85.0644 36.9302 80.7804 33.4382 80.7804 27.4622C80.7804 21.8102 84.9564 18.1382 89.4924 18.1382C94.9644 18.1382 98.2404 21.6302 98.2404 27.3182C98.2404 28.0022 98.1684 28.7222 98.1684 28.7942H85.4964C85.6044 31.1342 87.5844 32.8262 89.9604 32.8262C92.1924 32.8262 93.4164 31.7102 93.9924 30.1262ZM98.7709 31.5662C98.7709 28.3982 101.111 26.6342 104.063 26.2022L108.419 25.5542C109.427 25.4102 109.751 24.9062 109.751 24.2942C109.751 23.0342 108.779 21.9902 106.763 21.9902C104.675 21.9902 103.523 23.3222 103.379 24.8702L99.1309 23.9702C99.4189 21.1982 101.975 18.1382 106.727 18.1382C112.343 18.1382 114.431 21.3062 114.431 24.8702V33.5822C114.431 34.5182 114.539 35.7782 114.647 36.3902H110.255C110.147 35.9222 110.075 34.9502 110.075 34.2662C109.175 35.6702 107.483 36.8942 104.855 36.8942C101.075 36.8942 98.7709 34.3382 98.7709 31.5662ZM105.863 33.3302C107.879 33.3302 109.751 32.3582 109.751 29.2262V28.4342L105.755 29.0462C104.531 29.2262 103.559 29.9102 103.559 31.2782C103.559 32.3222 104.315 33.3302 105.863 33.3302ZM133.911 10.3262V33.1862C133.911 34.3742 133.983 35.6702 134.055 36.3902H129.483C129.411 36.0302 129.303 35.1662 129.303 34.3382C128.511 35.7422 126.711 36.8222 124.335 36.8222C119.295 36.8222 115.695 32.8622 115.695 27.4982C115.695 22.3142 119.187 18.2462 124.191 18.2462C127.251 18.2462 128.691 19.5062 129.195 20.4422V10.3262H133.911ZM120.519 27.4982C120.519 30.6662 122.391 32.5382 124.911 32.5382C127.359 32.5382 129.267 30.6662 129.267 27.4622C129.267 24.2942 127.359 22.5302 124.911 22.5302C122.463 22.5302 120.519 24.3302 120.519 27.4982ZM143.065 43.3742H137.989L142.165 34.1582L134.641 18.6782H140.005L144.721 29.0462L149.077 18.6782H154.189L143.065 43.3742Z" fill="#231F20"/>
<path d="M166.33 25.9862V36.3902H161.542V10.3262H166.33V20.1542C167.482 18.7862 169.426 18.2102 171.118 18.2102C175.618 18.2102 177.706 21.3422 177.706 25.2302V36.3902H172.918V26.0582C172.918 24.0782 171.946 22.5302 169.642 22.5302C167.626 22.5302 166.438 24.0422 166.33 25.9862ZM179.325 31.5662C179.325 28.3982 181.665 26.6342 184.617 26.2022L188.973 25.5542C189.981 25.4102 190.305 24.9062 190.305 24.2942C190.305 23.0342 189.333 21.9902 187.317 21.9902C185.229 21.9902 184.077 23.3222 183.933 24.8702L179.685 23.9702C179.973 21.1982 182.529 18.1382 187.281 18.1382C192.897 18.1382 194.985 21.3062 194.985 24.8702V33.5822C194.985 34.5182 195.093 35.7782 195.201 36.3902H190.809C190.701 35.9222 190.629 34.9502 190.629 34.2662C189.729 35.6702 188.037 36.8942 185.409 36.8942C181.629 36.8942 179.325 34.3382 179.325 31.5662ZM186.417 33.3302C188.433 33.3302 190.305 32.3582 190.305 29.2262V28.4342L186.309 29.0462C185.085 29.2262 184.113 29.9102 184.113 31.2782C184.113 32.3222 184.869 33.3302 186.417 33.3302ZM202.44 26.2022V36.3902H197.652V18.6782H202.296V20.8742C203.376 19.0382 205.5 18.2102 207.408 18.2102C211.8 18.2102 213.816 21.3422 213.816 25.2302V36.3902H209.028V26.0582C209.028 24.0782 208.056 22.5302 205.752 22.5302C203.664 22.5302 202.44 24.1502 202.44 26.2022ZM233.399 10.3262V33.1862C233.399 34.3742 233.471 35.6702 233.543 36.3902H228.971C228.899 36.0302 228.791 35.1662 228.791 34.3382C227.999 35.7422 226.199 36.8222 223.823 36.8222C218.783 36.8222 215.183 32.8622 215.183 27.4982C215.183 22.3142 218.675 18.2462 223.679 18.2462C226.739 18.2462 228.179 19.5062 228.683 20.4422V10.3262H233.399ZM220.007 27.4982C220.007 30.6662 221.879 32.5382 224.399 32.5382C226.847 32.5382 228.755 30.6662 228.755 27.4622C228.755 24.2942 226.847 22.5302 224.399 22.5302C221.951 22.5302 220.007 24.3302 220.007 27.4982ZM234.921 31.4582L239.025 30.5582C239.133 31.9622 240.177 33.2582 242.265 33.2582C243.849 33.2582 244.605 32.4302 244.605 31.4942C244.605 30.7022 244.065 30.0542 242.697 29.7662L240.357 29.2262C236.937 28.4702 235.389 26.4182 235.389 23.9342C235.389 20.7662 238.197 18.1382 242.013 18.1382C247.053 18.1382 248.745 21.3422 248.961 23.2502L244.965 24.1502C244.821 23.1062 244.065 21.7742 242.049 21.7742C240.789 21.7742 239.781 22.5302 239.781 23.5382C239.781 24.4022 240.429 24.9422 241.401 25.1222L243.921 25.6622C247.413 26.3822 249.177 28.5062 249.177 31.0982C249.177 33.9782 246.945 36.9302 242.301 36.9302C236.973 36.9302 235.137 33.4742 234.921 31.4582Z" fill="#231F20"/>
</svg>
